<?xml version="1.0" standalone="no"?>
<!DOCTYPE svg PUBLIC "-//W3C//DTD SVG 20010904//EN"
 "http://www.w3.org/TR/2001/REC-SVG-20010904/DTD/svg10.dtd">
<svg version="1.0" xmlns="http://www.w3.org/2000/svg"
 width="204.000000pt" height="192.000000pt" viewBox="0 0 204.000000 192.000000"
 preserveAspectRatio="xMidYMid meet">

<g transform="translate(0.000000,192.000000) scale(0.100000,-0.100000)"
fill="#000000" stroke="none">
<path d="M920 1513 c0 -47 3 -83 7 -80 3 4 5 40 4 81 l-2 75 88 4 88 3 -92 2
-93 2 0 -87z"/>
<path d="M977 1443 c18 -2 50 -2 70 0 21 2 7 4 -32 4 -38 0 -55 -2 -38 -4z"/>
<path d="M553 1383 l87 -4 0 -69 0 -69 -87 -4 -88 -3 93 -2 92 -2 0 80 0 80
-92 -2 -93 -2 88 -3z"/>
<path d="M700 1310 l0 -80 90 0 90 0 0 80 0 80 -90 0 -90 0 0 -80z m170 0 l0
-70 -80 0 -80 0 0 70 0 70 80 0 80 0 0 -70z"/>
<path d="M920 1310 l0 -80 93 2 92 2 -87 3 -88 4 0 69 0 69 88 4 87 3 -92 2
-93 2 0 -80z"/>
<path d="M1504 1285 c-14 -25 -25 -48 -22 -50 2 -2 14 16 27 41 13 24 27 44
31 44 4 0 32 -27 63 -59 32 -33 57 -56 57 -52 0 12 -107 121 -119 121 -5 0
-22 -20 -37 -45z"/>
<path d="M1472 1200 c0 -14 2 -19 5 -12 2 6 2 18 0 25 -3 6 -5 1 -5 -13z"/>
<path d="M1660 1174 c0 -10 5 -26 10 -34 8 -11 9 -7 4 15 -8 37 -14 45 -14 19z"/>
<path d="M333 1173 l87 -4 0 -69 0 -69 -87 -4 -88 -3 93 -2 92 -2 0 80 0 80
-92 -2 -93 -2 88 -3z"/>
<path d="M553 1173 l87 -4 0 -69 0 -69 -87 -4 -88 -3 93 -2 92 -2 0 80 0 80
-92 -2 -93 -2 88 -3z"/>
<path d="M700 1100 l0 -80 90 0 90 0 0 80 0 80 -90 0 -90 0 0 -80z m170 0 l0
-70 -80 0 -80 0 0 70 0 70 80 0 80 0 0 -70z"/>
<path d="M920 1100 l0 -80 93 2 92 2 -87 3 -88 4 0 69 0 69 88 4 87 3 -92 2
-93 2 0 -80z"/>
<path d="M1150 1100 l0 -80 85 0 85 0 0 80 0 80 -85 0 -85 0 0 -80z m160 0 l0
-70 -75 0 -75 0 0 70 0 70 75 0 75 0 0 -70z"/>
<path d="M1463 1135 c0 -22 2 -30 4 -17 2 12 2 30 0 40 -3 9 -5 -1 -4 -23z"/>
<path d="M1708 1123 c7 -3 16 -2 19 1 4 3 -2 6 -13 5 -11 0 -14 -3 -6 -6z"/>
<path d="M1878 1100 l42 -19 -21 -38 c-12 -21 -28 -46 -38 -57 -28 -31 -94
-59 -156 -65 l-59 -6 -58 -105 c-32 -57 -71 -118 -86 -135 l-27 -30 32 29 c17
15 57 75 88 132 l57 104 47 0 c86 0 173 57 217 141 14 28 14 29 -18 49 -18 11
-40 20 -48 20 -8 0 4 -9 28 -20z"/>
<path d="M1471 1082 c-1 -7 6 -29 14 -48 l14 -35 -34 -15 c-19 -8 -45 -15 -57
-15 -17 -1 -19 -2 -5 -6 21 -6 82 14 95 30 5 8 2 29 -9 57 -10 25 -18 39 -18
32z"/>
<path d="M113 863 c6 -95 23 -180 34 -170 3 3 -1 23 -8 44 -7 21 -13 80 -13
130 -1 51 -5 93 -10 93 -5 0 -6 -42 -3 -97z"/>
<path d="M150 675 c1 -6 7 -21 16 -35 l15 -25 -7 25 c-7 26 -24 52 -24 35z"/>
<path d="M1435 598 l-40 -43 43 40 c39 36 47 45 39 45 -2 0 -21 -19 -42 -42z"/>
<path d="M190 579 c0 -15 164 -179 179 -179 7 0 -12 19 -41 43 -29 23 -72 66
-95 95 -24 29 -43 48 -43 41z"/>
<path d="M1340 518 c-19 -16 -26 -25 -15 -19 31 16 71 51 60 50 -5 0 -26 -14
-45 -31z"/>
<path d="M1215 445 c-90 -50 -95 -60 -7 -16 52 27 104 61 92 60 -3 0 -41 -20
-85 -44z"/>
<path d="M1108 393 c7 -3 16 -2 19 1 4 3 -2 6 -13 5 -11 0 -14 -3 -6 -6z"/>
<path d="M420 380 c8 -5 20 -10 25 -10 6 0 3 5 -5 10 -8 5 -19 10 -25 10 -5 0
-3 -5 5 -10z"/>
<path d="M1050 380 c-18 -12 -2 -12 25 0 13 6 15 9 5 9 -8 0 -22 -4 -30 -9z"/>
<path d="M1008 363 c7 -3 16 -2 19 1 4 3 -2 6 -13 5 -11 0 -14 -3 -6 -6z"/>
<path d="M525 345 c22 -7 56 -13 75 -13 l35 1 -40 6 c-22 4 -56 10 -75 14 -34
6 -34 6 5 -8z"/>
<path d="M880 344 l-75 -13 65 4 c36 3 79 9 95 14 42 13 4 11 -85 -5z"/>
<path d="M688 323 c23 -2 59 -2 80 0 20 2 1 4 -43 4 -44 0 -61 -2 -37 -4z"/>
</g>
</svg>
