<?xml version="1.0" standalone="no"?>
<!DOCTYPE svg PUBLIC "-//W3C//DTD SVG 20010904//EN"
 "http://www.w3.org/TR/2001/REC-SVG-20010904/DTD/svg10.dtd">
<svg version="1.0" xmlns="http://www.w3.org/2000/svg"
 width="188.000000pt" height="177.000000pt" viewBox="0 0 188.000000 177.000000"
 preserveAspectRatio="xMidYMid meet">

<g transform="translate(0.000000,177.000000) scale(0.100000,-0.100000)"
fill="#000000" stroke="none">
<path d="M1110 1620 c0 -85 -33 -143 -125 -226 -237 -211 -274 -257 -255 -323
11 -39 85 -143 135 -191 l37 -35 -36 60 c-97 162 -89 194 97 380 149 149 170
185 170 286 0 36 -5 74 -11 85 -9 16 -11 9 -12 -36z"/>
<path d="M1210 1326 c-95 -39 -141 -66 -187 -109 -55 -51 -75 -87 -75 -141 0
-52 14 -88 57 -146 44 -60 51 -91 31 -131 -9 -18 -14 -34 -13 -36 2 -2 25 19
50 46 66 70 64 88 -23 241 -24 41 -25 62 -6 98 19 36 98 110 169 157 78 52 78
55 -3 21z"/>
<path d="M1375 800 c-4 -6 6 -10 24 -10 29 0 71 -32 71 -53 0 -5 8 -3 18 4 14
11 15 11 5 -1 -7 -8 -13 -26 -13 -40 0 -26 -47 -111 -69 -124 -6 -4 -9 -12 -6
-17 3 -5 -1 -6 -9 -3 -9 3 -16 2 -16 -3 0 -6 -12 -15 -26 -22 -47 -21 -19 -22
30 -1 30 13 45 24 40 31 -5 8 -3 9 5 4 17 -10 88 60 101 101 9 25 8 40 -4 67
-12 30 -46 60 -68 62 -3 0 -10 3 -14 8 -11 10 -62 9 -69 -3z"/>
<path d="M592 766 c-18 -6 -30 -14 -27 -18 4 -4 -1 -5 -12 -2 -21 5 -87 -32
-78 -45 22 -37 337 -52 563 -26 131 14 232 38 220 51 -2 1 -51 -4 -108 -13
-133 -20 -511 -24 -553 -5 -35 15 -28 28 27 53 46 21 21 25 -32 5z"/>
<path d="M626 579 c-14 -11 -26 -26 -26 -34 0 -43 249 -77 411 -56 115 15 189
32 189 44 0 5 -11 6 -24 3 -14 -3 -28 -2 -31 4 -4 6 1 7 12 3 14 -5 15 -3 7 6
-9 10 -31 10 -100 2 -114 -14 -342 -14 -381 0 -24 8 -30 15 -26 30 7 24 2 24
-31 -2z"/>
<path d="M666 404 c-55 -55 46 -94 244 -96 58 0 123 4 145 10 22 6 60 16 85
22 l45 12 -38 19 c-35 18 -46 19 -164 9 -151 -13 -247 -6 -274 21 -23 23 -24
23 -43 3z"/>
<path d="M450 289 c-49 -14 -98 -41 -105 -58 -19 -48 96 -71 390 -78 257 -6
450 6 571 37 87 22 154 57 154 79 0 11 -4 10 -15 -6 -32 -45 -261 -75 -590
-76 -154 -1 -235 3 -304 16 -131 22 -155 52 -68 84 38 14 16 15 -33 2z"/>
<path d="M1494 180 c-22 -22 -163 -62 -269 -76 -110 -15 -414 -21 -543 -10
-52 4 -59 3 -32 -4 19 -5 93 -14 164 -20 140 -12 359 0 493 25 77 15 184 58
204 81 13 16 -2 19 -17 4z"/>
</g>
</svg>
