<?xml version="1.0" standalone="no"?>
<!DOCTYPE svg PUBLIC "-//W3C//DTD SVG 20010904//EN"
 "http://www.w3.org/TR/2001/REC-SVG-20010904/DTD/svg10.dtd">
<svg version="1.0" xmlns="http://www.w3.org/2000/svg"
 width="204.000000pt" height="192.000000pt" viewBox="0 0 204.000000 192.000000"
 preserveAspectRatio="xMidYMid meet">

<g transform="translate(0.000000,192.000000) scale(0.100000,-0.100000)"
fill="#000000" stroke="none">
<path d="M990 1903 c-8 -3 -177 -82 -375 -175 -214 -100 -369 -178 -382 -193
-14 -16 -31 -68 -53 -162 -18 -76 -43 -185 -57 -243 -75 -320 -92 -404 -86
-429 8 -33 29 -63 123 -177 41 -50 98 -120 127 -155 214 -264 259 -316 287
-334 30 -19 45 -20 451 -17 370 3 423 6 446 20 23 15 69 69 282 331 29 35 86
105 127 155 94 114 115 144 123 177 6 25 -10 103 -87 434 -15 61 -41 170 -58
244 -20 87 -39 142 -52 157 -22 25 -730 362 -775 369 -14 2 -33 1 -41 -2z m60
-253 c18 -18 19 -28 14 -88 -9 -92 1 -108 69 -116 61 -8 171 -61 234 -112 23
-19 49 -34 58 -34 9 0 40 23 70 51 43 40 59 50 82 47 23 -2 29 -8 31 -35 3
-26 -2 -35 -25 -49 -114 -70 -118 -78 -81 -154 37 -75 58 -161 58 -240 0 -77
7 -84 100 -96 70 -8 90 -19 90 -47 0 -50 -39 -59 -120 -27 -69 27 -94 19 -115
-36 -24 -62 -97 -157 -161 -207 -34 -26 -54 -49 -54 -62 0 -11 16 -45 35 -75
40 -62 43 -80 15 -105 -18 -16 -22 -16 -43 -2 -13 8 -29 32 -35 53 -6 22 -21
54 -32 73 -19 30 -24 33 -53 26 -112 -24 -227 -24 -339 1 -23 5 -30 1 -48 -27
-11 -19 -25 -51 -31 -72 -5 -21 -21 -44 -35 -53 -23 -16 -26 -15 -44 1 -28 25
-25 43 15 105 32 52 46 110 26 110 -18 0 -111 86 -150 139 -22 30 -48 73 -57
97 -19 50 -41 59 -98 38 -86 -31 -93 -33 -115 -17 -24 16 -27 45 -7 66 8 8 42
17 75 20 93 10 101 18 101 104 0 76 33 201 68 258 19 29 19 31 0 57 -10 14
-41 40 -69 58 -45 28 -50 34 -47 63 3 27 7 32 33 35 25 2 39 -6 80 -48 27 -27
58 -50 68 -50 10 0 37 15 58 34 59 50 176 106 237 113 67 8 77 23 68 115 -5
60 -4 70 14 88 11 11 25 20 30 20 6 0 19 -9 30 -20z"/>
<path d="M898 1325 c-45 -12 -109 -46 -153 -80 -22 -18 -28 -12 99 -97 75 -52
75 -51 93 -40 14 9 30 232 17 231 -5 0 -30 -7 -56 -14z"/>
<path d="M1080 1302 c0 -97 13 -191 28 -197 16 -6 57 17 144 81 l58 42 -31 27
c-38 31 -93 60 -134 69 -16 4 -38 9 -47 12 -15 4 -18 -1 -18 -34z"/>
<path d="M630 1087 c-14 -32 -25 -81 -28 -126 -5 -71 -4 -73 17 -67 11 3 29 8
39 10 9 3 50 14 90 26 63 18 72 24 72 44 0 17 -22 43 -72 88 -40 35 -78 67
-84 71 -7 4 -20 -13 -34 -46z"/>
<path d="M1297 1067 c-43 -40 -77 -80 -77 -89 0 -23 22 -34 131 -63 l92 -24
-6 72 c-4 65 -40 177 -56 177 -3 0 -41 -33 -84 -73z"/>
<path d="M972 967 c-49 -52 9 -126 77 -97 61 25 39 120 -29 120 -15 0 -36 -10
-48 -23z"/>
<path d="M716 794 c-43 -7 -80 -15 -83 -17 -11 -12 50 -107 96 -150 27 -26 52
-47 54 -47 10 0 89 201 84 214 -8 19 -40 19 -151 0z"/>
<path d="M1173 794 c-3 -8 14 -60 37 -114 49 -114 46 -113 126 -28 48 51 83
112 71 125 -8 7 -161 33 -200 33 -16 0 -30 -7 -34 -16z"/>
<path d="M998 713 c-18 -22 -35 -51 -77 -126 -29 -53 -30 -58 -14 -65 27 -11
221 -8 232 3 7 7 -6 39 -41 100 -64 112 -73 119 -100 88z"/>
</g>
</svg>
