<?xml version="1.0" standalone="no"?>
<!DOCTYPE svg PUBLIC "-//W3C//DTD SVG 20010904//EN"
 "http://www.w3.org/TR/2001/REC-SVG-20010904/DTD/svg10.dtd">
<svg version="1.0" xmlns="http://www.w3.org/2000/svg"
 width="204.000000pt" height="192.000000pt" viewBox="0 0 204.000000 192.000000"
 preserveAspectRatio="xMidYMid meet">

<g transform="translate(0.000000,192.000000) scale(0.100000,-0.100000)"
fill="#000000" stroke="none">
<path d="M0 960 l0 -960 1020 0 1020 0 0 960 0 960 -1020 0 -1020 0 0 -960z
m1082 3 c301 -392 322 -422 281 -406 -11 4 -14 3 -9 -5 4 -7 -2 -24 -13 -38
l-20 -25 -73 88 c-40 49 -154 194 -253 322 l-180 233 -3 -246 -2 -246 -55 0
-55 0 0 320 0 320 68 0 69 0 245 -317z m268 208 c0 -61 -4 -112 -10 -116 -5
-3 -7 -13 -4 -23 4 -12 3 -13 -3 -5 -5 7 -25 14 -45 15 -35 3 -36 4 -42 53 -3
28 -6 80 -6 118 l0 67 55 0 55 0 0 -109z"/>
</g>
</svg>
